<svg id="visual" viewBox="0 0 1660 3200" width="1660" height="3200" xmlns="http://www.w3.org/2000/svg" xmlns:xlink="http://www.w3.org/1999/xlink" version="1.1"><rect width="1660" height="3200" fill="#2E5E4E"></rect><g><g transform="translate(1527 173)"><path d="M0 -433.6L412.4 -134L254.9 350.8L-254.9 350.8L-412.4 -134Z" fill="#93A7AA"></path></g><g transform="translate(263 2857)"><path d="M0 -359L341.4 -110.9L211 290.4L-211 290.4L-341.4 -110.9Z" fill="#93A7AA"></path></g><g transform="translate(92 925)"><path d="M0 -263L250.1 -81.3L154.6 212.8L-154.6 212.8L-250.1 -81.3Z" fill="#93A7AA"></path></g><g transform="translate(1313 1619)"><path d="M0 -240L228.3 -74.2L141.1 194.2L-141.1 194.2L-228.3 -74.2Z" fill="#93A7AA"></path></g><g transform="translate(497 1982)"><path d="M0 -383L364.3 -118.4L225.1 309.9L-225.1 309.9L-364.3 -118.4Z" fill="#93A7AA"></path></g><g transform="translate(1160 3140)"><path d="M0 -216L205.4 -66.7L127 174.7L-127 174.7L-205.4 -66.7Z" fill="#93A7AA"></path></g><g transform="translate(440 62)"><path d="M0 -260L247.3 -80.3L152.8 210.3L-152.8 210.3L-247.3 -80.3Z" fill="#93A7AA"></path></g></g></svg>